<?xml version="1.0" standalone="no"?>
<!DOCTYPE svg PUBLIC "-//W3C//DTD SVG 20010904//EN"
 "http://www.w3.org/TR/2001/REC-SVG-20010904/DTD/svg10.dtd">
<svg version="1.0" xmlns="http://www.w3.org/2000/svg"
 width="138.000000pt" height="138.000000pt" viewBox="0 0 138.000000 138.000000"
 preserveAspectRatio="xMidYMid meet">
<metadata>
Created by potrace 1.14, written by Peter Selinger 2001-2017
</metadata>
<g transform="translate(0.000000,138.000000) scale(0.100000,-0.100000)"
fill="#000000" stroke="none">
<path d="M988 1275 c-2 -2 -68 -5 -148 -9 -349 -15 -533 -26 -538 -31 -2 -2
-3 -85 -2 -184 l0 -182 -40 21 -40 20 -16 -37 c-8 -21 -36 -90 -62 -153 -25
-63 -61 -143 -79 -178 -38 -71 -36 -82 23 -104 19 -6 34 -15 34 -19 0 -4 -20
-19 -45 -34 l-46 -26 83 -66 c46 -37 101 -83 124 -102 22 -20 52 -45 65 -55
13 -10 32 -25 41 -33 16 -15 41 -8 72 19 14 11 196 138 253 175 23 16 42 31
43 34 0 3 -32 31 -71 62 l-72 57 34 1 c19 1 50 3 69 3 19 1 40 5 47 9 6 4 14
3 18 -2 4 -7 15 -7 30 -1 17 6 25 6 25 -1 0 -6 6 -7 12 -3 14 9 31 11 168 18
52 3 96 6 98 6 9 6 60 2 72 -5 9 -5 11 -4 6 3 -5 9 8 12 46 13 29 0 62 2 73 5
11 2 31 5 45 7 24 2 25 5 23 67 -1 36 -4 195 -7 354 -2 159 -8 292 -13 296 -4
4 -37 18 -73 31 -48 16 -90 23 -157 24 -51 1 -94 1 -95 0z"/>
</g>
</svg>
